REM DIRINDEX 1\2,1\3,1\4
REM DIRNAME folder01,folder02,folder03,folder04
TITLE ""
FILE "DISC1Track24.mp3" MP3
  TRACK 01 AUDIO
    TITLE "4:cjc038_0873"
    INDEX 01 00:00:00
  TRACK 02 AUDIO
    TITLE "0:"
    INDEX 01 00:02:65
  TRACK 03 AUDIO
    TITLE "4:cjc038_0874"
    INDEX 01 00:03:10
  TRACK 04 AUDIO
    TITLE "0:"
    INDEX 01 00:05:52
  TRACK 05 AUDIO
    TITLE "2:cjc038_0875"
    INDEX 01 00:07:11
  TRACK 06 AUDIO
    TITLE "0:"
    INDEX 01 00:09:16
  TRACK 07 AUDIO
    TITLE "3:cjc038_0876"
    INDEX 01 00:09:22
  TRACK 08 AUDIO
    TITLE "0:"
    INDEX 01 00:11:23
  TRACK 09 AUDIO
    TITLE "2:cjc038_0877"
    INDEX 01 00:12:01
  TRACK 10 AUDIO
    TITLE "0:"
    INDEX 01 00:14:25
  TRACK 11 AUDIO
    TITLE "3:cjc038_0878"
    INDEX 01 00:14:33
  TRACK 12 AUDIO
    TITLE "0:"
    INDEX 01 00:16:49
  TRACK 13 AUDIO
    TITLE "2:cjc038_0879"
    INDEX 01 00:17:31
  TRACK 14 AUDIO
    TITLE "0:"
    INDEX 01 00:19:11
  TRACK 15 AUDIO
    TITLE "3:cjc038_0880"
    INDEX 01 00:19:22
  TRACK 16 AUDIO
    TITLE "0:"
    INDEX 01 00:20:67
  TRACK 17 AUDIO
    TITLE "2:cjc038_0881"
    INDEX 01 00:21:51
  TRACK 18 AUDIO
    TITLE "0:"
    INDEX 01 00:24:08
  TRACK 19 AUDIO
    TITLE "3:cjc038_0882"
    INDEX 01 00:24:14
  TRACK 20 AUDIO
    TITLE "0:"
    INDEX 01 00:26:40
  TRACK 21 AUDIO
    TITLE "2:cjc038_0883"
    INDEX 01 00:27:16
  TRACK 22 AUDIO
    TITLE "0:"
    INDEX 01 00:29:13
  TRACK 23 AUDIO
    TITLE "3:cjc038_0884"
    INDEX 01 00:29:21
  TRACK 24 AUDIO
    TITLE "0:"
    INDEX 01 00:31:10
  TRACK 25 AUDIO
    TITLE "2:cjc038_0885"
    INDEX 01 00:31:65
  TRACK 26 AUDIO
    TITLE "0:"
    INDEX 01 00:34:32
  TRACK 27 AUDIO
    TITLE "3:cjc038_0886"
    INDEX 01 00:34:45
  TRACK 28 AUDIO
    TITLE "0:"
    INDEX 01 00:36:70
  TRACK 29 AUDIO
    TITLE "2:cjc038_0887"
    INDEX 01 00:37:46
  TRACK 30 AUDIO
    TITLE "0:"
    INDEX 01 00:39:19
  TRACK 31 AUDIO
    TITLE "3:cjc038_0888"
    INDEX 01 00:39:29
  TRACK 32 AUDIO
    TITLE "0:"
    INDEX 01 00:40:64
  TRACK 33 AUDIO
    TITLE "2:cjc038_0889"
    INDEX 01 00:41:42
  TRACK 34 AUDIO
    TITLE "0:"
    INDEX 01 00:43:46
  TRACK 35 AUDIO
    TITLE "3:cjc038_0890"
    INDEX 01 00:43:54
  TRACK 36 AUDIO
    TITLE "0:"
    INDEX 01 00:45:37
  TRACK 37 AUDIO
    TITLE "2:cjc038_0891"
    INDEX 01 00:47:21
  TRACK 38 AUDIO
    TITLE "0:"
    INDEX 01 00:49:43
  TRACK 39 AUDIO
    TITLE "2:cjc038_0892"
    INDEX 01 00:49:53
  TRACK 40 AUDIO
    TITLE "0:"
    INDEX 01 00:51:05
  TRACK 41 AUDIO
    TITLE "3:cjc038_0893"
    INDEX 01 00:51:16
  TRACK 42 AUDIO
    TITLE "0:"
    INDEX 01 00:53:25
  TRACK 43 AUDIO
    TITLE "3:cjc038_0894"
    INDEX 01 00:53:45
  TRACK 44 AUDIO
    TITLE "0:"
    INDEX 01 00:54:64
  TRACK 45 AUDIO
    TITLE "2:cjc038_0895"
    INDEX 01 00:55:44
  TRACK 46 AUDIO
    TITLE "0:"
    INDEX 01 00:57:64
  TRACK 47 AUDIO
    TITLE "3:cjc038_0896"
    INDEX 01 00:57:74
  TRACK 48 AUDIO
    TITLE "0:"
    INDEX 01 01:00:08
  TRACK 49 AUDIO
    TITLE "2:cjc038_0897"
    INDEX 01 01:00:66
  TRACK 50 AUDIO
    TITLE "0:"
    INDEX 01 01:06:02
  TRACK 51 AUDIO
    TITLE "3:cjc038_0898"
    INDEX 01 01:06:12
  TRACK 52 AUDIO
    TITLE "0:"
    INDEX 01 01:11:07
  TRACK 53 AUDIO
    TITLE "2:cjc038_0899"
    INDEX 01 01:11:64
  TRACK 54 AUDIO
    TITLE "0:"
    INDEX 01 01:14:37
  TRACK 55 AUDIO
    TITLE "3:cjc038_0900"
    INDEX 01 01:14:43
  TRACK 56 AUDIO
    TITLE "0:"
    INDEX 01 01:17:10
  TRACK 57 AUDIO
    TITLE "2:cjc038_0901"
    INDEX 01 01:17:63
  TRACK 58 AUDIO
    TITLE "0:"
    INDEX 01 01:20:61
  TRACK 59 AUDIO
    TITLE "3:cjc038_0902"
    INDEX 01 01:21:06
  TRACK 60 AUDIO
    TITLE "0:"
    INDEX 01 01:24:02
